<svg xmlns="http://www.w3.org/2000/svg" viewBox="0 0 520 180">
  <defs>
    <linearGradient id="leafBody" x1="20%" y1="0%" x2="80%" y2="100%">
      <stop offset="0%" stop-color="#76C97D" />
      <stop offset="60%" stop-color="#3A8D4B" />
      <stop offset="100%" stop-color="#1F5E30" />
    </linearGradient>
    <linearGradient id="leafShine" x1="0%" y1="0%" x2="60%" y2="80%">
      <stop offset="0%" stop-color="#B7E7B6" stop-opacity="0.6" />
      <stop offset="100%" stop-color="#3A8D4B" stop-opacity="0" />
    </linearGradient>
    <filter id="shadow" x="-20%" y="-10%" width="150%" height="140%">
      <feDropShadow dx="2" dy="4" stdDeviation="4" flood-color="#17441F" flood-opacity="0.25" />
    </filter>
  </defs>
  <g transform="translate(10, 8)" filter="url(#shadow)">
    <path d="M 80 8 Q 88 2 94 6 Q 90 12 84 14" fill="#C8E1B2" stroke="#79B77A" stroke-width="1" />
    <path d="M 80 10 C 100 6, 128 18, 136 46 C 146 78, 136 110, 114 126 C 92 142, 58 140, 40 122 C 22 104, 20 72, 32 48 C 44 24, 62 14, 80 10 Z" fill="url(#leafBody)" stroke="#1F5E30" stroke-width="3" />
    <path d="M 72 16 C 90 12, 114 26, 120 52 C 126 70, 120 92, 106 108" fill="url(#leafShine)" stroke="none" />
    <path d="M 64 18 C 80 14, 104 28, 112 54" fill="none" stroke="#A1D99A" stroke-width="6" stroke-linecap="round" opacity="0.35" />
    <path d="M 80 18 Q 78 70 70 128" stroke="#1F5E30" stroke-width="2.5" fill="none" stroke-linecap="round" opacity="0.7" />
    <path d="M 75 42 Q 58 52 52 64" stroke="#1F5E30" stroke-width="1.8" fill="none" stroke-linecap="round" opacity="0.6" />
    <path d="M 73 62 Q 52 72 46 86" stroke="#1F5E30" stroke-width="1.5" fill="none" stroke-linecap="round" opacity="0.5" />
    <path d="M 72 82 Q 54 90 50 102" stroke="#1F5E30" stroke-width="1.3" fill="none" stroke-linecap="round" opacity="0.45" />
    <path d="M 83 44 Q 104 52 110 64" stroke="#1F5E30" stroke-width="1.8" fill="none" stroke-linecap="round" opacity="0.6" />
    <path d="M 80 64 Q 102 72 108 84" stroke="#1F5E30" stroke-width="1.5" fill="none" stroke-linecap="round" opacity="0.5" />
    <circle cx="66" cy="68" r="7" fill="#0A2E13" />
    <circle cx="94" cy="66" r="7" fill="#0A2E13" />
    <circle cx="69" cy="65" r="2.5" fill="#FFF" />
    <circle cx="97" cy="63" r="2.5" fill="#FFF" />
    <path d="M 60 60 Q 67 55 74 59" stroke="#0A2E13" stroke-width="3" fill="none" stroke-linecap="round" />
    <path d="M 88 58 Q 95 53 102 57" stroke="#0A2E13" stroke-width="3" fill="none" stroke-linecap="round" />
    <path d="M 62 84 Q 80 98 100 83" stroke="#0A2E13" stroke-width="3" fill="none" stroke-linecap="round" />
    <circle cx="56" cy="80" r="6" fill="#C8E1B2" opacity="0.4" />
    <circle cx="106" cy="78" r="6" fill="#C8E1B2" opacity="0.4" />
    <line x1="50" y1="96" x2="20" y2="78" stroke="#0A2E13" stroke-width="5" stroke-linecap="round" />
    <circle cx="16" cy="75" r="8" fill="#0A2E13" />
    <line x1="116" y1="90" x2="144" y2="72" stroke="#0A2E13" stroke-width="5" stroke-linecap="round" />
    <circle cx="148" cy="69" r="8" fill="#0A2E13" />
    <line x1="62" y1="138" x2="42" y2="166" stroke="#0A2E13" stroke-width="6" stroke-linecap="round" />
    <ellipse cx="34" cy="170" rx="16" ry="8" fill="#F8FBF0" stroke="#0A2E13" stroke-width="2" />
    <path d="M 20 168 Q 34 162 48 168" fill="#DDE7DC" stroke="none" />
    <line x1="98" y1="136" x2="118" y2="162" stroke="#0A2E13" stroke-width="6" stroke-linecap="round" />
    <ellipse cx="126" cy="166" rx="16" ry="8" fill="#F8FBF0" stroke="#0A2E13" stroke-width="2" />
    <path d="M 112 164 Q 126 158 140 164" fill="#DDE7DC" stroke="none" />
    <ellipse cx="78" cy="175" rx="52" ry="6" fill="#0B3617" opacity="0.14" />
    <line x1="-12" y1="84" x2="10" y2="84" stroke="#0B3617" stroke-width="3.5" stroke-linecap="round" opacity="0.5" />
    <line x1="-18" y1="100" x2="8" y2="100" stroke="#0B3617" stroke-width="3" stroke-linecap="round" opacity="0.35" />
    <line x1="-10" y1="116" x2="10" y2="116" stroke="#0B3617" stroke-width="2.5" stroke-linecap="round" opacity="0.25" />
  </g>
  <text x="182" y="106" font-family="Georgia, 'Times New Roman', serif" font-weight="700" font-size="76" fill="#1A3F1D" letter-spacing="-2">Kia</text>
  <text x="300" y="106" font-family="Georgia, 'Times New Roman', serif" font-weight="700" font-size="76" fill="#3A8D4B" letter-spacing="-2">Kia</text>
  <circle cx="418" cy="92" r="9" fill="#B8DD9A" />
  <text x="183" y="133" font-family="Georgia, 'Times New Roman', serif" font-weight="400" font-style="italic" font-size="20" fill="#3A8D4B" letter-spacing="1.5" opacity="0.9">foods</text>
  <text x="330" y="138" font-family="Arial, Helvetica, sans-serif" font-weight="400" font-size="11" fill="#4B4B4B" letter-spacing="4.5">WE GO. YOU REST.</text>
</svg>
